<svg width="24" height="24" viewBox="0 0 24 24" fill="none" xmlns="http://www.w3.org/2000/svg">
<g clip-path="url(#clip0_1_134)">
<path d="M23.954 4.56903C23.069 4.95803 22.124 5.22303 21.129 5.34403C22.143 4.73303 22.923 3.77003 23.292 2.62103C22.341 3.17603 21.287 3.58003 20.165 3.80503C19.269 2.84603 17.992 2.24603 16.574 2.24603C13.857 2.24603 11.654 4.44903 11.654 7.16303C11.654 7.55303 11.699 7.92803 11.781 8.28703C7.691 8.09403 4.066 6.13003 1.64 3.16103C1.213 3.88303 0.974 4.72203 0.974 5.63603C0.974 7.34603 1.844 8.84903 3.162 9.73203C2.355 9.70603 1.596 9.48403 0.934 9.11603V9.17703C0.934 11.562 2.627 13.551 4.88 14.004C4.467 14.115 4.031 14.175 3.584 14.175C3.27 14.175 2.969 14.145 2.668 14.089C3.299 16.042 5.113 17.466 7.272 17.506C5.592 18.825 3.463 19.611 1.17 19.611C0.78 19.611 0.391 19.588 0 19.544C2.189 20.938 4.768 21.753 7.557 21.753C16.611 21.753 21.556 14.257 21.556 7.76703C21.556 7.55803 21.556 7.34703 21.541 7.13703C22.502 6.44803 23.341 5.57703 24.001 4.58903L23.954 4.56903Z" fill="#577387"/>
</g>
<defs>
<clipPath id="clip0_1_134">
<rect width="24" height="24" fill="white"/>
</clipPath>
</defs>
</svg>
