<svg width="24" height="24" viewBox="0 0 24 24" fill="none" xmlns="http://www.w3.org/2000/svg">
<g clip-path="url(#clip0_1_136)">
<path d="M23.7615 7.19998C23.7615 7.19998 23.5275 5.54548 22.806 4.81948C21.8925 3.86398 20.8695 3.85798 20.4015 3.80248C17.046 3.55798 12.006 3.55798 12.006 3.55798H11.997C11.997 3.55798 6.95851 3.55798 3.60151 3.80248C3.13201 3.85948 2.11051 3.86398 1.19701 4.81948C0.475507 5.54548 0.246007 7.19998 0.246007 7.19998C0.246007 7.19998 0.00750732 9.14098 0.00750732 11.0865V12.906C0.00750732 14.847 0.246007 16.7925 0.246007 16.7925C0.246007 16.7925 0.480007 18.447 1.19701 19.1745C2.11051 20.13 3.31051 20.0985 3.84601 20.2005C5.76751 20.3835 12.0075 20.439 12.0075 20.439C12.0075 20.439 17.052 20.43 20.4075 20.19C20.877 20.1345 21.8985 20.1285 22.812 19.173C23.5335 18.447 23.7675 16.791 23.7675 16.791C23.7675 16.791 24.006 14.85 24.006 12.9045V11.085C24.0015 9.14398 23.763 7.19848 23.763 7.19848L23.7615 7.19998ZM9.52051 15.1125V8.36698L16.0035 11.751L9.52051 15.1125Z" fill="#577387"/>
</g>
<defs>
<clipPath id="clip0_1_136">
<rect width="24" height="24" fill="white"/>
</clipPath>
</defs>
</svg>
